<svg width="16" height="16" viewBox="0 0 16 16" fill="none" xmlns="http://www.w3.org/2000/svg">
<g clip-path="url(#clip0_8697_41631)">
<path d="M8.00002 4.66667C9.84002 4.66667 11.3334 6.16 11.3334 8C11.3334 8.35563 11.275 8.6933 11.1693 9.01301C11.1273 9.13996 11.1547 9.28139 11.2493 9.37593L12.8246 10.9513C12.9466 11.0732 13.142 11.0826 13.2701 10.9671C14.0397 10.2729 14.6714 9.42891 15.1189 8.48133C15.2628 8.17659 15.2625 7.82344 15.1183 7.51882C13.8545 4.84867 11.1409 3 7.99335 3C7.24456 3 6.52151 3.10728 5.83798 3.30461C5.60359 3.37228 5.53787 3.66452 5.71038 3.83703L6.62409 4.75073C6.71863 4.84528 6.86006 4.87269 6.98701 4.83073C7.30672 4.72504 7.64439 4.66667 8.00002 4.66667ZM1.75669 2.42333C1.52289 2.65713 1.52289 3.0362 1.75669 3.27L2.85335 4.36667L2.89291 4.40622C3.03472 4.54804 3.01969 4.78168 2.8674 4.91218C2.03183 5.62823 1.35058 6.51521 0.875504 7.51804C0.73097 7.82313 0.731053 8.17693 0.875513 8.48206C2.13944 11.1517 4.85281 13 8.00002 13C8.95539 13 9.87086 12.829 10.7148 12.5187C10.84 12.4727 10.9812 12.5011 11.0754 12.5954L11.2 12.72L12.7297 14.2444C12.9638 14.4777 13.3426 14.4774 13.5763 14.2437C13.8103 14.0097 13.8103 13.6303 13.5763 13.3963L2.60335 2.42333C2.36955 2.18953 1.99049 2.18953 1.75669 2.42333ZM4.84146 6.96278C4.91511 6.74662 5.18764 6.70095 5.34911 6.86243L5.92164 7.43496C6.00349 7.51681 6.03482 7.63497 6.01841 7.74956C6.00656 7.83221 6.00002 7.9161 6.00002 8C6.00002 9.10667 6.89335 10 8.00002 10C8.08392 10 8.16781 9.99346 8.25046 9.98162C8.36505 9.9652 8.48321 9.99653 8.56506 10.0784L9.1376 10.6509C9.29907 10.8124 9.2534 11.0849 9.03725 11.1586C8.71025 11.27 8.36306 11.3333 8.00002 11.3333C6.16002 11.3333 4.66669 9.84 4.66669 8C4.66669 7.63696 4.73004 7.28977 4.84146 6.96278ZM8.00669 6.00667C7.96277 6.00925 7.94253 6.06251 7.97363 6.09361L9.91734 8.03732C9.94828 8.06826 10.0013 8.05008 10.0067 8.00667C10.0067 6.9 9.11335 6.00667 8.00669 6.00667Z" fill="#222222"/>
</g>
<defs>
<clipPath id="clip0_8697_41631">
<rect width="16" height="16" fill="white"/>
</clipPath>
</defs>
</svg>
